<svg width="151" height="30" viewBox="0 0 151 30" fill="none" xmlns="http://www.w3.org/2000/svg">
<path d="M11.54 24.3C9.94 24.3 8.45 24.04 7.07 23.52C5.71 22.98 4.52 22.23 3.5 21.27C2.5 20.29 1.72 19.14 1.16 17.82C0.6 16.5 0.32 15.06 0.32 13.5C0.32 11.94 0.6 10.5 1.16 9.18C1.72 7.86 2.51 6.72 3.53 5.76C4.55 4.78 5.74 4.03 7.1 3.51C8.46 2.97 9.95 2.7 11.57 2.7C13.29 2.7 14.86 3 16.28 3.6C17.7 4.18 18.9 5.05 19.88 6.21L17.36 8.58C16.6 7.76 15.75 7.15 14.81 6.75C13.87 6.33 12.85 6.12 11.75 6.12C10.65 6.12 9.64 6.3 8.72 6.66C7.82 7.02 7.03 7.53 6.35 8.19C5.69 8.85 5.17 9.63 4.79 10.53C4.43 11.43 4.25 12.42 4.25 13.5C4.25 14.58 4.43 15.57 4.79 16.47C5.17 17.37 5.69 18.15 6.35 18.81C7.03 19.47 7.82 19.98 8.72 20.34C9.64 20.7 10.65 20.88 11.75 20.88C12.85 20.88 13.87 20.68 14.81 20.28C15.75 19.86 16.6 19.23 17.36 18.39L19.88 20.79C18.9 21.93 17.7 22.8 16.28 23.4C14.86 24 13.28 24.3 11.54 24.3ZM23.2569 24V1.74H27.0069V24H23.2569ZM31.9288 24V7.98H35.6788V24H31.9288ZM33.8188 5.34C33.1188 5.34 32.5388 5.12 32.0788 4.68C31.6388 4.24 31.4188 3.71 31.4188 3.09C31.4188 2.45 31.6388 1.92 32.0788 1.5C32.5388 1.06 33.1188 0.84 33.8188 0.84C34.5188 0.84 35.0888 1.05 35.5288 1.47C35.9888 1.87 36.2188 2.38 36.2188 3C36.2188 3.66 35.9988 4.22 35.5588 4.68C35.1188 5.12 34.5388 5.34 33.8188 5.34ZM49.4806 24.21C48.1806 24.21 46.9906 23.91 45.9106 23.31C44.8506 22.71 44.0006 21.81 43.3606 20.61C42.7406 19.39 42.4306 17.85 42.4306 15.99C42.4306 14.11 42.7306 12.57 43.3306 11.37C43.9506 10.17 44.7906 9.28 45.8506 8.7C46.9106 8.1 48.1206 7.8 49.4806 7.8C51.0606 7.8 52.4506 8.14 53.6506 8.82C54.8706 9.5 55.8306 10.45 56.5306 11.67C57.2506 12.89 57.6106 14.33 57.6106 15.99C57.6106 17.65 57.2506 19.1 56.5306 20.34C55.8306 21.56 54.8706 22.51 53.6506 23.19C52.4506 23.87 51.0606 24.21 49.4806 24.21ZM40.6006 29.82V7.98H44.1706V11.76L44.0506 16.02L44.3506 20.28V29.82H40.6006ZM49.0606 21C49.9606 21 50.7606 20.8 51.4606 20.4C52.1806 20 52.7506 19.42 53.1706 18.66C53.5906 17.9 53.8006 17.01 53.8006 15.99C53.8006 14.95 53.5906 14.06 53.1706 13.32C52.7506 12.56 52.1806 11.98 51.4606 11.58C50.7606 11.18 49.9606 10.98 49.0606 10.98C48.1606 10.98 47.3506 11.18 46.6306 11.58C45.9106 11.98 45.3406 12.56 44.9206 13.32C44.5006 14.06 44.2906 14.95 44.2906 15.99C44.2906 17.01 44.5006 17.9 44.9206 18.66C45.3406 19.42 45.9106 20 46.6306 20.4C47.3506 20.8 48.1606 21 49.0606 21ZM70.047 24.21C68.747 24.21 67.557 23.91 66.477 23.31C65.417 22.71 64.567 21.81 63.927 20.61C63.307 19.39 62.997 17.85 62.997 15.99C62.997 14.11 63.297 12.57 63.897 11.37C64.517 10.17 65.357 9.28 66.417 8.7C67.477 8.1 68.687 7.8 70.047 7.8C71.627 7.8 73.017 8.14 74.217 8.82C75.437 9.5 76.397 10.45 77.097 11.67C77.817 12.89 78.177 14.33 78.177 15.99C78.177 17.65 77.817 19.1 77.097 20.34C76.397 21.56 75.437 22.51 74.217 23.19C73.017 23.87 71.627 24.21 70.047 24.21ZM61.167 29.82V7.98H64.737V11.76L64.617 16.02L64.917 20.28V29.82H61.167ZM69.627 21C70.527 21 71.327 20.8 72.027 20.4C72.747 20 73.317 19.42 73.737 18.66C74.157 17.9 74.367 17.01 74.367 15.99C74.367 14.95 74.157 14.06 73.737 13.32C73.317 12.56 72.747 11.98 72.027 11.58C71.327 11.18 70.527 10.98 69.627 10.98C68.727 10.98 67.917 11.18 67.197 11.58C66.477 11.98 65.907 12.56 65.487 13.32C65.067 14.06 64.857 14.95 64.857 15.99C64.857 17.01 65.067 17.9 65.487 18.66C65.907 19.42 66.477 20 67.197 20.4C67.917 20.8 68.727 21 69.627 21ZM89.2634 24.21C87.4834 24.21 85.9234 23.86 84.5834 23.16C83.2634 22.44 82.2334 21.46 81.4934 20.22C80.7734 18.98 80.4134 17.57 80.4134 15.99C80.4134 14.39 80.7634 12.98 81.4634 11.76C82.1834 10.52 83.1634 9.55 84.4034 8.85C85.6634 8.15 87.0934 7.8 88.6934 7.8C90.2534 7.8 91.6434 8.14 92.8634 8.82C94.0834 9.5 95.0434 10.46 95.7434 11.7C96.4434 12.94 96.7934 14.4 96.7934 16.08C96.7934 16.24 96.7834 16.42 96.7634 16.62C96.7634 16.82 96.7534 17.01 96.7334 17.19H83.3834V14.7H94.7534L93.2834 15.48C93.3034 14.56 93.1134 13.75 92.7134 13.05C92.3134 12.35 91.7634 11.8 91.0634 11.4C90.3834 11 89.5934 10.8 88.6934 10.8C87.7734 10.8 86.9634 11 86.2634 11.4C85.5834 11.8 85.0434 12.36 84.6434 13.08C84.2634 13.78 84.0734 14.61 84.0734 15.57V16.17C84.0734 17.13 84.2934 17.98 84.7334 18.72C85.1734 19.46 85.7934 20.03 86.5934 20.43C87.3934 20.83 88.3134 21.03 89.3534 21.03C90.2534 21.03 91.0634 20.89 91.7834 20.61C92.5034 20.33 93.1434 19.89 93.7034 19.29L95.7134 21.6C94.9934 22.44 94.0834 23.09 92.9834 23.55C91.9034 23.99 90.6634 24.21 89.2634 24.21ZM100.396 24V7.98H103.966V12.39L103.546 11.1C104.026 10.02 104.776 9.2 105.796 8.64C106.836 8.08 108.126 7.8 109.666 7.8V11.37C109.506 11.33 109.356 11.31 109.216 11.31C109.076 11.29 108.936 11.28 108.796 11.28C107.376 11.28 106.246 11.7 105.406 12.54C104.566 13.36 104.146 14.59 104.146 16.23V24H100.396ZM111.949 17.22V14.1H120.199V17.22H111.949ZM121.077 24L130.527 3H134.367L143.847 24H139.767L131.637 5.07H133.197L125.097 24H121.077ZM125.427 19.14L126.477 16.08H137.817L138.867 19.14H125.427ZM146.517 24V3H150.417V24H146.517Z" fill="black"/>
</svg>
