<svg width="18" height="21" viewBox="0 0 18 21" fill="none" xmlns="http://www.w3.org/2000/svg">
<path d="M9 11.5C11.7614 11.5 14 9.26142 14 6.5C14 3.73858 11.7614 1.5 9 1.5C6.23858 1.5 4 3.73858 4 6.5C4 9.26142 6.23858 11.5 9 11.5Z" fill="white" stroke="#2C2C2C" stroke-width="2" stroke-linecap="round" stroke-linejoin="round"/>
<path d="M17 19.5C17 17.3783 16.1571 15.3434 14.6569 13.8431C13.1566 12.3429 11.1217 11.5 9 11.5C6.87827 11.5 4.84344 12.3429 3.34315 13.8431C1.84285 15.3434 1 17.3783 1 19.5" fill="white"/>
<path d="M17 19.5C17 17.3783 16.1571 15.3434 14.6569 13.8431C13.1566 12.3429 11.1217 11.5 9 11.5C6.87827 11.5 4.84344 12.3429 3.34315 13.8431C1.84285 15.3434 1 17.3783 1 19.5" stroke="#2C2C2C" stroke-width="2" stroke-linecap="round" stroke-linejoin="round"/>
<path d="M9 11.5C6.87827 11.5 4.84344 12.3429 3.34315 13.8431C1.84285 15.3434 1 17.3783 1 19.5H17C17 17.3783 16.1571 15.3434 14.6569 13.8431C13.1566 12.3429 11.1217 11.5 9 11.5Z" fill="white" stroke="#2C2C2C" stroke-width="2" stroke-linecap="round" stroke-linejoin="round"/>
</svg>
